PathFileType	4	(X/Y/Z)	60_2_87_p0_0-430_filt_butterworth.trc
DataRate	CameraRate	NumFrames	NumMarkers	Units	OrigDataRate	OrigDataStartFrame	OrigNumFrames
60.0	60.0	6	27	m	60.0	0	430
Frame#	Time	RHip			RKnee			RAnkle			RBigToe			RSmallToe			RHeel			LHip			LKnee			LAnkle			LBigToe			LSmallToe			LHeel			Neck			Head			Nose			RShoulder			RElbow			RWrist			RThumb			RIndex			RPinky			LShoulder			LElbow			LWrist			LThumb			LIndex			LPinky			
		X1	Y1	Z1	X2	Y2	Z2	X3	Y3	Z3	X4	Y4	Z4	X5	Y5	Z5	X6	Y6	Z6	X7	Y7	Z7	X8	Y8	Z8	X9	Y9	Z9	X10	Y10	Z10	X11	Y11	Z11	X12	Y12	Z12	X13	Y13	Z13	X14	Y14	Z14	X15	Y15	Z15	X16	Y16	Z16	X17	Y17	Z17	X18	Y18	Z18	X19	Y19	Z19	X20	Y20	Z20	X21	Y21	Z21	X22	Y22	Z22	X23	Y23	Z23	X24	Y24	Z24	X25	Y25	Z25	X26	Y26	Z26	X27	Y27	Z27	
0	0.0	0.3371188686100285	0.7218056493291267	0.5882531402624623	0.35144840223312596	0.27026208863176604	0.6916378527833422	0.3595980753113031	-0.1556927102888319	0.7694544513083642	0.34589892101192393	-0.1425605454742686	0.5500787273425549	0.3970245398943191	-0.14985539783808013	0.5937432747534966	0.34129770540683635	-0.20787641844783236	0.8094273052446392	0.12525434182180242	0.7229608115250635	0.6305243469476526	0.09955042704465121	0.28277464973638794	0.720926483131658	0.07970761029787592	-0.14302053882606944	0.7992375463112378	0.06700353439513526	-0.14064133670078036	0.6022525917988468	0.016552300169520067	-0.1369591052325042	0.6421765634580988	0.07274412130450526	-0.2250983315671592	0.8682672907488502	0.2546829967966152	1.3031651802038278	0.6120417601558371	0.2656868662991721	1.5358115340813756	0.567268493405946	0.2662622011912866	1.4093522168014634	0.4725942658921043	0.4215597730451971	1.2185906276957033	0.6037846095300569	0.5176726854116973	0.9582287462482739	0.5491784060650853	0.32107451620743416	0.8715490115554235	0.4952720911255962	0.18862177766136765	0.8845883967953928	0.4519542046686079	0.17950205057817908	0.8409450149579502	0.4318648330034604	0.2318308049661276	0.8078343583396538	0.4328639201976998	0.07901855115720288	1.2375611873760426	0.614992877680058	-0.004973050927368579	0.9811383686586082	0.5684032380847422	0.16466272837381138	0.8963945321354319	0.42929493032651234	0.26543801801479516	0.8801363413142108	0.4323553928993976	0.26862587460055953	0.8351428260080639	0.4335238502584339	0.23503347345105854	0.8022735776355718	0.4567133670304028	
1	0.0166666666666666	0.33606634024621224	0.7200765585683462	0.5901940170528434	0.3515456225614902	0.26848181431588625	0.6918374281592696	0.3596398830377089	-0.1554425716334823	0.7694200006328129	0.3465295140377812	-0.13918468269896928	0.5439309660301404	0.39984612179759327	-0.15241485843989808	0.5999390267416997	0.3406088443450392	-0.20584806771075623	0.8089728919044717	0.12449916136318133	0.7217096481059283	0.6325538519522031	0.09992401492970743	0.2810347298304152	0.7246488804108967	0.08077490715381219	-0.1414500312385738	0.7961631964630111	0.06905287636740153	-0.13832401204820743	0.5981574580276077	0.01645597161065351	-0.13933617949658944	0.6432748086800462	0.07088349556632555	-0.22871482345475547	0.8726347615202188	0.25453594189834117	1.304894186764956	0.6117815128534458	0.2656878198111089	1.5368456841948024	0.5670309080963443	0.26827455549687745	1.409392262465594	0.4735394130840318	0.41981316860281803	1.218097897580879	0.6099123268273637	0.5173721906596457	0.9579192468343347	0.5505867286572149	0.320804412811534	0.8735854977379565	0.4948644675313743	0.18662687619266935	0.8884413030297951	0.4518631166946797	0.1795805690025343	0.8435453652076517	0.4328310206504737	0.2267558634348791	0.8073953502249298	0.43983909714151986	0.0797029927195026	1.2387214707255945	0.6182638067624244	-0.0047394255640644065	0.9811620595122879	0.5679328077015187	0.16633444684769588	0.897067234060668	0.42987572159828974	0.26516538804354794	0.8848286125256685	0.4324098560474358	0.2699077586583762	0.8358688502105711	0.4328941590449752	0.2344754545239602	0.8025658010305338	0.4598608582185491	
2	0.0333333333333333	0.3352973266208961	0.7187406462549444	0.5917494376210686	0.35164432031614457	0.26708416871801105	0.6920066259862675	0.3596819536062387	-0.15510010568858187	0.7694121535294771	0.34733170076955583	-0.13668334673479512	0.5393801011905646	0.4016890358933158	-0.15419986560988316	0.6038882976686231	0.3401008775113396	-0.20413205613993746	0.808650282292892	0.12390881466426067	0.7209973692345685	0.6338883557717464	0.1002106828631289	0.2796871556205228	0.7275633844094124	0.08167628792647626	-0.14012625885282265	0.793569391022769	0.07055976898832537	-0.13635975349516966	0.5946204068569205	0.01632720260394388	-0.1405972757316612	0.6435091570516964	0.06939310433578105	-0.23156322060432674	0.8761648438833751	0.25444104146936275	1.3059880357740672	0.6116270301316015	0.26568919805928276	1.5375010118894155	0.5668394882637006	0.2695555480500766	1.409413875086468	0.47415195487475514	0.41908531774642815	1.2177060126310886	0.6150462903849736	0.5169217684514454	0.9575312147871394	0.5527641705717116	0.32062986301710095	0.8748852878289219	0.49461439476492686	0.18534648230558312	0.8909310356107589	0.45182831632714576	0.17954486623453372	0.8456252642931775	0.4330753254070024	0.22385138190881948	0.8075521696077894	0.4436217562532946	0.08030091312752344	1.2395007995310994	0.6210540934727052	-0.004663477165076064	0.9811502909753084	0.5679321154861182	0.16744849045896482	0.8978238757444855	0.4302839781645445	0.26497758712485536	0.8880427868573892	0.43248368421918026	0.2703974272407851	0.8366875768854163	0.4329055474467993	0.2336925240875936	0.8028199891187288	0.4629222531309511	
3	0.05	0.3347885767270556	0.7177656109132687	0.5929448456472494	0.35174286380605807	0.2660369618493198	0.6921473514832494	0.35972383841084593	-0.15467795783614427	0.7694278368125623	0.3482017074674525	-0.13495510857176052	0.5362428367241219	0.40273600367394974	-0.15533983289793465	0.6060230537607812	0.3397588848825328	-0.20270630943218	0.8084471862960175	0.12346808061120487	0.7207651299142941	0.6346005995358701	0.10041809428804124	0.27869797053720724	0.7297386942785797	0.08242408138503951	-0.13903077794675633	0.7914202684530313	0.07160045730320272	-0.1347403152189173	0.5916482551185659	0.016179322136632434	-0.14098610896842204	0.643105124290039	0.06824267901489132	-0.23371062134265994	0.8789236969568729	0.25438844738821326	1.3065693388724442	0.6115574224369709	0.2656911219011539	1.5378461462588635	0.5666897674691056	0.27024549336936265	1.4094210303957906	0.4744954715567352	0.41914329974454617	1.2174035334877402	0.6192543000643236	0.5163796705317156	0.957099820390318	0.5554135235851676	0.3205324229909023	0.8755891687865932	0.4944889818631226	0.18464370506000707	0.8923033115419401	0.4518317135642947	0.17942042934256955	0.8472648837244201	0.43276824031540523	0.22264489714444882	0.8081855321580786	0.44481059373019094	0.08080783376571336	1.2399674012039354	0.6233672693776648	-0.004690652908196496	0.9811193040022455	0.5682433455283872	0.16810732605634768	0.8986107446187921	0.43054692138842543	0.26485940353102255	0.8900344430144795	0.4325668450344622	0.2702894845395703	0.8375514501434405	0.4333750816325559	0.23273396449651643	0.8030500077035284	0.46574170673114185	
4	0.0666666666666666	0.3345168395576662	0.7171191510676665	0.5938056848114972	0.3518396213401995	0.26530800372099184	0.6922615098691279	0.3597650888454838	-0.15418877345818352	0.7694639772962745	0.34903576039167594	-0.13389853919987962	0.534335876531106	0.4031697466319584	-0.155964173853952	0.6067752612446886	0.33956794643541377	-0.20154875328428784	0.8083513137999648	0.12316173809017844	0.7209540851484156	0.6347633243741627	0.10055391264757008	0.2780332180109649	0.7312435091697734	0.0830306162986734	-0.13814514479831505	0.7896799672163181	0.07225118635732948	-0.13345745139670082	0.5892478196443239	0.016025659195960443	-0.14074639423757423	0.6422882261120634	0.06740195100567593	-0.23522412399654205	0.8809774798592658	0.254368311533426	1.3067607077013692	0.6115518002162211	0.26569371219418236	1.5379497163967955	0.5665772792736502	0.2704847059732144	1.4094177041252653	0.4746335434224327	0.41975419386569074	1.2171790207922428	0.6226041557268513	0.5158041486450752	0.9566602339275003	0.5582375794741751	0.32049364889970544	0.8758379275692441	0.4944553378628306	0.18438165351583932	0.8928038478269942	0.451855218404415	0.17923274539503403	0.8485443950112717	0.43208025841804104	0.2226639458982671	0.8091761535456427	0.44400430576937555	0.08121927601852037	1.24018950315548	0.6252068660440679	-0.004766399971218646	0.9810853395476754	0.5687086819181724	0.168413420488574	0.8993741281154948	0.4306917726330817	0.26479562553435454	0.8910591597020464	0.4326493061131125	0.26977853474651586	0.8384129140954844	0.4341198277708942	0.23164905810528635	0.8032697225883043	0.4681633739826544	
5	0.0833333333333333	0.3344588641057033	0.7167689652424855	0.5943573987939234	0.3519329612275379	0.2648651043442064	0.6923510063628164	0.3598052563041058	-0.1536451979367133	0.769517501794819	0.349730085802432	-0.1334122096091685	0.5334759245118117	0.403172986259806	-0.1562023020278363	0.6065768863468605	0.33951314214677764	-0.20063731339306484	0.8083503746908511	0.1229745659873458	0.7215053899402429	0.6344492714162121	0.10062580138484103	0.27765894147229225	0.7321465282343682	0.08350822143654929	-0.1374509156854392	0.7883126257751495	0.07258820119600168	-0.13250291620577237	0.5874259172659763	0.015879542769169204	-0.1401218465698223	0.6412839782347602	0.06684065171015441	-0.23617082689275973	0.8823923517091069	0.25437078578353484	1.306684753902127	0.6115892739160202	0.2656970897958289	1.5378803513968613	0.5664975572384259	0.27041350038011097	1.409407872006599	0.47462975076430924	0.4206850793783817	1.2170210351860042	0.6251636572339947	0.5152534545361444	0.9562476256823165	0.5609391300153274	0.3204950969102785	0.8757723511351481	0.4944805718009202	0.18442343673297845	0.8926783614695771	0.45188074084579616	0.17900730146031985	0.849543969663625	0.431181872757269	0.22343606492677492	0.8104047494403274	0.441801588568016	0.08153076127039263	1.240235332797112	0.6265764150386798	-0.004836165531935465	0.9810646385661742	0.5691703087453208	0.16846924060437374	0.9000603136665017	0.4307457532616627	0.26477104140715707	0.8913725156251967	0.43272103507496257	0.2690591820534067	0.8392244128523898	0.4349568520304644	0.23048708726846157	0.8034929995764282	0.47003140984902214	
